# xmcd
#
# Track frame offsets: 
#        150
#        19732
#        34100
#        50262
#        66480
#        72287
#        91157
#        111190
#        132302
#        150342
#        156910
#        171527
#
# Disc length: 2542 seconds
#
# Revision: 6
# Processed by: cddbd v1.5.2PL0 Copyright (c) Steve Scherf et al.
# Submitted via: ExactAudioCopy v0.99pb4
#
DISCID=9f09ec0c
DTITLE=Hate Dept. - Omnipresent
DYEAR=1996
DGENRE=Electro Industrial
TTITLE0=The Dead Peddler
TTITLE1=Bitch
TTITLE2=New Power
TTITLE3=Won't Stay Lit
TTITLE4=Jump Steven, Jump!
TTITLE5=This Doggy Bites
TTITLE6=Rejoice
TTITLE7=Best Things
TTITLE8=I Don't Know You
TTITLE9=Dreams Of Conspiracy
TTITLE10=Thinker
TTITLE11=Flesh Feeds Soul
EXTD=
EXTT0=
EXTT1=
EXTT2=
EXTT3=
EXTT4=
EXTT5=
EXTT6=
EXTT7=
EXTT8=
EXTT9=
EXTT10=
EXTT11=
PLAYORDER=
